<mxfile host="Electron" agent="Mozilla/5.0 (Windows NT 10.0; Win64; x64) AppleWebKit/537.36 (KHTML, like Gecko) draw.io/27.0.9 Chrome/134.0.6998.205 Electron/35.4.0 Safari/537.36" version="27.0.9">
  <diagram name="Page-1" id="tK38c1M8dN7rYRfojU7-">
    <mxGraphModel dx="1376" dy="412" grid="1" gridSize="10" guides="1" tooltips="1" connect="1" arrows="1" fold="1" page="1" pageScale="1" pageWidth="850" pageHeight="1100" math="0" shadow="0">
      <root>
        <mxCell id="0" />
        <mxCell id="1" parent="0" />
        <mxCell id="RTzyEY6zPjFMhnzcprwU-13" value="" style="rounded=0;whiteSpace=wrap;html=1;" vertex="1" parent="1">
          <mxGeometry x="-40" y="148" width="490" height="390" as="geometry" />
        </mxCell>
        <mxCell id="TIKqu0mZGgTxE3p_EpjN-2" value="Website" style="shape=umlLifeline;perimeter=lifelinePerimeter;whiteSpace=wrap;html=1;container=1;dropTarget=0;collapsible=0;recursiveResize=0;outlineConnect=0;portConstraint=eastwest;newEdgeStyle={&quot;curved&quot;:0,&quot;rounded&quot;:0};" parent="1" vertex="1">
          <mxGeometry x="80" y="40" width="100" height="680" as="geometry" />
        </mxCell>
        <mxCell id="RTzyEY6zPjFMhnzcprwU-28" value="" style="html=1;points=[[0,0,0,0,5],[0,1,0,0,-5],[1,0,0,0,5],[1,1,0,0,-5]];perimeter=orthogonalPerimeter;outlineConnect=0;targetShapes=umlLifeline;portConstraint=eastwest;newEdgeStyle={&quot;curved&quot;:0,&quot;rounded&quot;:0};" vertex="1" parent="TIKqu0mZGgTxE3p_EpjN-2">
          <mxGeometry x="45" y="70" width="10" height="570" as="geometry" />
        </mxCell>
        <mxCell id="TIKqu0mZGgTxE3p_EpjN-3" value="sever" style="shape=umlLifeline;perimeter=lifelinePerimeter;whiteSpace=wrap;html=1;container=1;dropTarget=0;collapsible=0;recursiveResize=0;outlineConnect=0;portConstraint=eastwest;newEdgeStyle={&quot;curved&quot;:0,&quot;rounded&quot;:0};" parent="1" vertex="1">
          <mxGeometry x="240" y="40" width="100" height="680" as="geometry" />
        </mxCell>
        <mxCell id="RTzyEY6zPjFMhnzcprwU-29" value="" style="html=1;points=[[0,0,0,0,5],[0,1,0,0,-5],[1,0,0,0,5],[1,1,0,0,-5]];perimeter=orthogonalPerimeter;outlineConnect=0;targetShapes=umlLifeline;portConstraint=eastwest;newEdgeStyle={&quot;curved&quot;:0,&quot;rounded&quot;:0};" vertex="1" parent="TIKqu0mZGgTxE3p_EpjN-3">
          <mxGeometry x="45" y="90" width="10" height="500" as="geometry" />
        </mxCell>
        <mxCell id="TIKqu0mZGgTxE3p_EpjN-4" value="database" style="shape=umlLifeline;perimeter=lifelinePerimeter;whiteSpace=wrap;html=1;container=1;dropTarget=0;collapsible=0;recursiveResize=0;outlineConnect=0;portConstraint=eastwest;newEdgeStyle={&quot;curved&quot;:0,&quot;rounded&quot;:0};" parent="1" vertex="1">
          <mxGeometry x="400" y="40" width="100" height="680" as="geometry" />
        </mxCell>
        <mxCell id="TIKqu0mZGgTxE3p_EpjN-5" value="" style="shape=umlLifeline;perimeter=lifelinePerimeter;whiteSpace=wrap;html=1;container=1;dropTarget=0;collapsible=0;recursiveResize=0;outlineConnect=0;portConstraint=eastwest;newEdgeStyle={&quot;curved&quot;:0,&quot;rounded&quot;:0};participant=umlActor;" parent="1" vertex="1">
          <mxGeometry y="40" width="20" height="680" as="geometry" />
        </mxCell>
        <mxCell id="TIKqu0mZGgTxE3p_EpjN-6" value="" style="endArrow=open;endFill=1;endSize=12;html=1;rounded=0;" parent="1" target="TIKqu0mZGgTxE3p_EpjN-2" edge="1">
          <mxGeometry width="160" relative="1" as="geometry">
            <mxPoint x="10" y="120" as="sourcePoint" />
            <mxPoint x="170" y="120" as="targetPoint" />
          </mxGeometry>
        </mxCell>
        <mxCell id="TIKqu0mZGgTxE3p_EpjN-7" value="Register" style="text;html=1;align=center;verticalAlign=middle;resizable=0;points=[];autosize=1;strokeColor=none;fillColor=none;" parent="1" vertex="1">
          <mxGeometry x="40" y="100" width="70" height="30" as="geometry" />
        </mxCell>
        <mxCell id="TIKqu0mZGgTxE3p_EpjN-12" value="check if account exist" style="text;html=1;align=center;verticalAlign=middle;resizable=0;points=[];autosize=1;strokeColor=none;fillColor=none;" parent="1" vertex="1">
          <mxGeometry x="130" y="118" width="140" height="30" as="geometry" />
        </mxCell>
        <mxCell id="TIKqu0mZGgTxE3p_EpjN-16" value="" style="endArrow=classic;html=1;rounded=0;" parent="1" source="TIKqu0mZGgTxE3p_EpjN-2" edge="1">
          <mxGeometry width="50" height="50" relative="1" as="geometry">
            <mxPoint x="240" y="190" as="sourcePoint" />
            <mxPoint x="290" y="140" as="targetPoint" />
          </mxGeometry>
        </mxCell>
        <mxCell id="TIKqu0mZGgTxE3p_EpjN-17" value="" style="endArrow=classic;html=1;rounded=0;dashed=1;" parent="1" edge="1">
          <mxGeometry width="50" height="50" relative="1" as="geometry">
            <mxPoint x="289.75" y="173" as="sourcePoint" />
            <mxPoint x="130.25" y="173" as="targetPoint" />
          </mxGeometry>
        </mxCell>
        <mxCell id="TIKqu0mZGgTxE3p_EpjN-18" value="account exist" style="text;html=1;align=center;verticalAlign=middle;resizable=0;points=[];autosize=1;strokeColor=none;fillColor=none;" parent="1" vertex="1">
          <mxGeometry x="165" y="148" width="90" height="30" as="geometry" />
        </mxCell>
        <mxCell id="TIKqu0mZGgTxE3p_EpjN-19" value="" style="endArrow=classic;html=1;rounded=0;dashed=1;" parent="1" edge="1">
          <mxGeometry width="50" height="50" relative="1" as="geometry">
            <mxPoint x="130" y="200" as="sourcePoint" />
            <mxPoint x="10.5" y="200" as="targetPoint" />
          </mxGeometry>
        </mxCell>
        <mxCell id="TIKqu0mZGgTxE3p_EpjN-22" value="Request login" style="text;html=1;align=center;verticalAlign=middle;resizable=0;points=[];autosize=1;strokeColor=none;fillColor=none;" parent="1" vertex="1">
          <mxGeometry x="20" y="178" width="100" height="30" as="geometry" />
        </mxCell>
        <mxCell id="TIKqu0mZGgTxE3p_EpjN-23" value="" style="endArrow=classic;html=1;rounded=0;dashed=1;" parent="1" edge="1">
          <mxGeometry width="50" height="50" relative="1" as="geometry">
            <mxPoint x="10.25" y="240" as="sourcePoint" />
            <mxPoint x="129.75" y="240" as="targetPoint" />
          </mxGeometry>
        </mxCell>
        <mxCell id="TIKqu0mZGgTxE3p_EpjN-26" value="Log in" style="text;html=1;align=center;verticalAlign=middle;resizable=0;points=[];autosize=1;strokeColor=none;fillColor=none;dashed=1;" parent="1" vertex="1">
          <mxGeometry x="40" y="220" width="60" height="30" as="geometry" />
        </mxCell>
        <mxCell id="TIKqu0mZGgTxE3p_EpjN-27" value="" style="endArrow=classic;html=1;rounded=0;" parent="1" target="TIKqu0mZGgTxE3p_EpjN-3" edge="1">
          <mxGeometry width="50" height="50" relative="1" as="geometry">
            <mxPoint x="130" y="260" as="sourcePoint" />
            <mxPoint x="180" y="210" as="targetPoint" />
          </mxGeometry>
        </mxCell>
        <mxCell id="TIKqu0mZGgTxE3p_EpjN-32" value="Log in complete" style="text;html=1;align=center;verticalAlign=middle;resizable=0;points=[];autosize=1;strokeColor=none;fillColor=none;" parent="1" vertex="1">
          <mxGeometry x="145" y="238" width="110" height="30" as="geometry" />
        </mxCell>
        <mxCell id="TIKqu0mZGgTxE3p_EpjN-34" value="" style="endArrow=classic;html=1;rounded=0;" parent="1" target="TIKqu0mZGgTxE3p_EpjN-4" edge="1">
          <mxGeometry width="50" height="50" relative="1" as="geometry">
            <mxPoint x="290" y="278" as="sourcePoint" />
            <mxPoint x="340" y="228" as="targetPoint" />
          </mxGeometry>
        </mxCell>
        <mxCell id="TIKqu0mZGgTxE3p_EpjN-37" value="Fetch user data" style="text;html=1;align=center;verticalAlign=middle;resizable=0;points=[];autosize=1;strokeColor=none;fillColor=none;" parent="1" vertex="1">
          <mxGeometry x="315" y="258" width="110" height="30" as="geometry" />
        </mxCell>
        <mxCell id="TIKqu0mZGgTxE3p_EpjN-38" value="" style="endArrow=classic;html=1;rounded=0;dashed=1;" parent="1" target="TIKqu0mZGgTxE3p_EpjN-3" edge="1">
          <mxGeometry width="50" height="50" relative="1" as="geometry">
            <mxPoint x="450" y="318" as="sourcePoint" />
            <mxPoint x="500" y="268" as="targetPoint" />
          </mxGeometry>
        </mxCell>
        <mxCell id="TIKqu0mZGgTxE3p_EpjN-39" value="User data found" style="text;html=1;align=center;verticalAlign=middle;resizable=0;points=[];autosize=1;strokeColor=none;fillColor=none;" parent="1" vertex="1">
          <mxGeometry x="305" y="298" width="110" height="30" as="geometry" />
        </mxCell>
        <mxCell id="RTzyEY6zPjFMhnzcprwU-2" value="User" style="text;html=1;align=center;verticalAlign=middle;resizable=0;points=[];autosize=1;strokeColor=none;fillColor=none;" vertex="1" parent="1">
          <mxGeometry x="-15" y="18" width="50" height="30" as="geometry" />
        </mxCell>
        <mxCell id="RTzyEY6zPjFMhnzcprwU-3" value="" style="endArrow=classic;html=1;rounded=0;" edge="1" parent="1">
          <mxGeometry width="50" height="50" relative="1" as="geometry">
            <mxPoint x="130.25" y="380" as="sourcePoint" />
            <mxPoint x="289.75" y="380" as="targetPoint" />
          </mxGeometry>
        </mxCell>
        <mxCell id="RTzyEY6zPjFMhnzcprwU-5" value="account doesn&#39;t exist" style="text;html=1;align=center;verticalAlign=middle;resizable=0;points=[];autosize=1;strokeColor=none;fillColor=none;" vertex="1" parent="1">
          <mxGeometry x="145" y="360" width="140" height="30" as="geometry" />
        </mxCell>
        <mxCell id="RTzyEY6zPjFMhnzcprwU-6" value="" style="endArrow=classic;html=1;rounded=0;" edge="1" parent="1">
          <mxGeometry width="50" height="50" relative="1" as="geometry">
            <mxPoint x="290.5" y="420" as="sourcePoint" />
            <mxPoint x="450" y="420" as="targetPoint" />
          </mxGeometry>
        </mxCell>
        <mxCell id="RTzyEY6zPjFMhnzcprwU-7" value="add new data" style="text;html=1;align=center;verticalAlign=middle;resizable=0;points=[];autosize=1;strokeColor=none;fillColor=none;" vertex="1" parent="1">
          <mxGeometry x="320" y="400" width="100" height="30" as="geometry" />
        </mxCell>
        <mxCell id="RTzyEY6zPjFMhnzcprwU-8" value="" style="endArrow=classic;html=1;rounded=0;entryX=0.5;entryY=0.923;entryDx=0;entryDy=0;entryPerimeter=0;dashed=1;" edge="1" parent="1">
          <mxGeometry width="50" height="50" relative="1" as="geometry">
            <mxPoint x="450" y="470" as="sourcePoint" />
            <mxPoint x="290.5" y="470" as="targetPoint" />
            <Array as="points" />
          </mxGeometry>
        </mxCell>
        <mxCell id="RTzyEY6zPjFMhnzcprwU-9" value="new data added" style="text;html=1;align=center;verticalAlign=middle;resizable=0;points=[];autosize=1;strokeColor=none;fillColor=none;" vertex="1" parent="1">
          <mxGeometry x="310" y="450" width="110" height="30" as="geometry" />
        </mxCell>
        <mxCell id="RTzyEY6zPjFMhnzcprwU-18" value="" style="endArrow=none;dashed=1;html=1;rounded=0;entryX=1;entryY=0.5;entryDx=0;entryDy=0;" edge="1" parent="1" target="RTzyEY6zPjFMhnzcprwU-13">
          <mxGeometry width="50" height="50" relative="1" as="geometry">
            <mxPoint x="-40" y="348" as="sourcePoint" />
            <mxPoint x="10" y="298" as="targetPoint" />
          </mxGeometry>
        </mxCell>
        <mxCell id="RTzyEY6zPjFMhnzcprwU-19" value="IF account exist" style="text;html=1;align=center;verticalAlign=middle;whiteSpace=wrap;rounded=0;" vertex="1" parent="1">
          <mxGeometry x="-40" y="208" width="50" height="30" as="geometry" />
        </mxCell>
        <mxCell id="RTzyEY6zPjFMhnzcprwU-20" value="Else" style="text;html=1;align=center;verticalAlign=middle;whiteSpace=wrap;rounded=0;" vertex="1" parent="1">
          <mxGeometry x="-40" y="360" width="50" height="30" as="geometry" />
        </mxCell>
        <mxCell id="RTzyEY6zPjFMhnzcprwU-22" value="User account" style="shape=card;whiteSpace=wrap;html=1;direction=south;" vertex="1" parent="1">
          <mxGeometry x="-40" y="153" width="70" height="20" as="geometry" />
        </mxCell>
        <mxCell id="RTzyEY6zPjFMhnzcprwU-23" value="" style="endArrow=classic;html=1;rounded=0;" edge="1" parent="1" target="TIKqu0mZGgTxE3p_EpjN-2">
          <mxGeometry width="50" height="50" relative="1" as="geometry">
            <mxPoint x="290" y="620" as="sourcePoint" />
            <mxPoint x="340" y="570" as="targetPoint" />
          </mxGeometry>
        </mxCell>
        <mxCell id="RTzyEY6zPjFMhnzcprwU-25" value="Send data to dashboard" style="text;html=1;align=center;verticalAlign=middle;resizable=0;points=[];autosize=1;strokeColor=none;fillColor=none;" vertex="1" parent="1">
          <mxGeometry x="135" y="598" width="150" height="30" as="geometry" />
        </mxCell>
        <mxCell id="RTzyEY6zPjFMhnzcprwU-26" value="" style="endArrow=classic;html=1;rounded=0;" edge="1" parent="1" target="TIKqu0mZGgTxE3p_EpjN-5">
          <mxGeometry width="50" height="50" relative="1" as="geometry">
            <mxPoint x="130" y="670" as="sourcePoint" />
            <mxPoint x="180" y="620" as="targetPoint" />
          </mxGeometry>
        </mxCell>
        <mxCell id="RTzyEY6zPjFMhnzcprwU-27" value="Display dashboard" style="text;html=1;align=center;verticalAlign=middle;resizable=0;points=[];autosize=1;strokeColor=none;fillColor=none;" vertex="1" parent="1">
          <mxGeometry x="10" y="648" width="120" height="30" as="geometry" />
        </mxCell>
        <mxCell id="RTzyEY6zPjFMhnzcprwU-30" value="" style="html=1;points=[[0,0,0,0,5],[0,1,0,0,-5],[1,0,0,0,5],[1,1,0,0,-5]];perimeter=orthogonalPerimeter;outlineConnect=0;targetShapes=umlLifeline;portConstraint=eastwest;newEdgeStyle={&quot;curved&quot;:0,&quot;rounded&quot;:0};" vertex="1" parent="1">
          <mxGeometry x="445" y="270" width="10" height="210" as="geometry" />
        </mxCell>
      </root>
    </mxGraphModel>
  </diagram>
</mxfile>
